<?xml version="1.0" encoding="utf-8"?>
<svg viewBox="1.303 1.24 192.874 89.229" width="192.874" height="89.229" xmlns="http://www.w3.org/2000/svg">
  <path style="stroke: none;" d="M 81.403 1.396 C 84.088 7.619 89.259 13.449 93.013 19.095 C 94.07 20.685 97.258 23.981 97.258 25.903 C 97.258 27.774 94.061 31.151 93.012 32.71 C 89.231 38.332 84.115 44.203 81.403 50.409 L 92.748 50.409 C 94.137 50.409 96.385 50.839 97.666 50.272 C 99.182 49.602 100.471 46.54 101.371 45.19 L 110.447 31.575 C 111.377 30.18 113.89 27.618 113.888 25.903 C 113.886 24.218 111.367 21.609 110.447 20.23 L 101.371 6.615 C 100.471 5.265 99.182 2.204 97.666 1.533 C 96.385 0.966 94.137 1.396 92.748 1.396 L 81.403 1.396 Z"/>
  <path style="fill: rgb(247, 241, 216); stroke: none;" d="M 81.403 1.623 L 81.63 1.85 L 81.403 1.623 M 84.58 6.388 L 84.806 6.615 L 84.58 6.388 M 85.487 7.75 L 85.714 7.977 L 85.487 7.75 M 89.118 13.196 L 89.345 13.422 L 89.118 13.196 M 90.025 14.557 L 90.252 14.784 L 90.025 14.557 M 90.933 15.918 L 91.16 16.145 L 90.933 15.918 M 92.295 17.961 L 92.521 18.188 L 92.295 17.961 Z"/>
  <path style="fill: rgb(209, 209, 209); stroke: none;" d="M 93.202 19.322 L 93.429 19.549 L 93.202 19.322 Z"/>
  <path style="fill: rgb(247, 241, 216); stroke: none;" d="M 94.564 21.364 L 94.791 21.591 L 94.564 21.364 Z"/>
  <path style="fill: rgb(255, 171, 171); stroke: none;" d="M 95.471 22.726 L 95.698 22.953 L 95.471 22.726 Z"/>
  <path style="fill: rgb(247, 241, 216); stroke: none;" d="M 112.716 23.86 L 112.943 24.087 L 112.716 23.86 M 93.656 31.575 L 93.883 31.802 L 93.656 31.575 Z"/>
  <path style="fill: rgb(209, 209, 209); stroke: none;" d="M 92.748 32.937 L 92.975 33.164 L 92.748 32.937 Z"/>
  <path style="fill: rgb(247, 241, 216); stroke: none;" d="M 90.479 36.34 L 90.706 36.567 L 90.479 36.34 Z"/>
  <path style="fill: rgb(209, 209, 209); stroke: none;" d="M 89.572 37.702 L 89.798 37.929 L 89.572 37.702 Z"/>
  <path style="fill: rgb(247, 241, 216); stroke: none;" d="M 88.664 39.063 L 88.891 39.29 L 88.664 39.063 M 87.302 41.106 L 87.529 41.332 L 87.302 41.106 M 86.395 42.467 L 86.622 42.694 L 86.395 42.467 M 84.58 45.19 L 84.806 45.417 L 84.58 45.19 Z"/>
  <path style="stroke: none;" d="M 129.281 45.417 L 129.281 49.955 L 194.177 49.955 L 194.177 45.417 L 129.281 45.417 M 1.303 45.871 L 1.303 50.409 L 66.2 50.409 L 66.2 45.871 L 1.303 45.871 Z"/>
  <path style="fill: rgb(247, 241, 216); stroke: none;" d="M 82.31 48.594 L 82.537 48.821 L 82.31 48.594 M 81.403 49.955 L 81.63 50.182 L 81.403 49.955 Z"/>
  <text style="font-family: Arial, sans-serif; font-size: 34px; white-space: pre;" x="56.803" y="83.214">Todo</text>
</svg>